<?xml version="1.0" encoding="utf-8"?>
<!-- Generator: Adobe Illustrator 18.1.1, SVG Export Plug-In . SVG Version: 6.00 Build 0)  -->
<svg version="1.1" id="Layer_1" xmlns="http://www.w3.org/2000/svg" xmlns:xlink="http://www.w3.org/1999/xlink" x="0px" y="0px"
	 viewBox="0 0 11520 6480" enable-background="new 0 0 11520 6480" xml:space="preserve">
<g>
	<path fill="#482D16" d="M9121.5,1532.7c-108.3,26.8-123.4,99.5-111.2,191.5c7.3,55.5-7.1,111.2-22.6,165.1
		c-22.7,79-87.9,133.8-162.5,137.4c-74.8,3.6-150.9-48.6-176.8-126.9c-15.9-48.1-24.9-98.4-38.3-153.1
		c-30.7,48.8-61.5,92.7-108.7,120.8c-114.9,68.5-245.9-16-256.4-164.8c-6.7-94.8,7.7-186.7,35.2-277.2
		c44.5-146.4,87.2-293.4,132-439.7c41-134.1,99.1-177,238.7-180.7c88.1-2.3,175.2,4.6,261.7,22.5c237.4,49.3,359.3,225,320.2,464.8
		c-4.5,27.3-10.7,54.3-17.5,88.3c53-33.6,90.8-78.2,144.3-100c114.7-46.7,212.8,6.3,235.1,128.6c2.4,13.4,3.1,27.1,4.7,41.5
		c122-56.2,213.1-37.5,268.7,51.8c16.5,26.4,25.1,56.1,27.4,84.6c17.3,217.8-39.5,411.8-206.6,559.7
		c-118.7,105-257,106.2-397.8,44.9c-143.2-62.3-219.4-172.2-230.3-328.2C9052.9,1748.1,9080.5,1639,9121.5,1532.7z"/>
	<path fill="#482D16" d="M6622.2,947.1c13.4-88.8,28.5-177,80.3-253.9c43.6-64.8,104.2-92.2,180.3-78.8
		c74.5,13.2,107.1,67.2,125.7,135.7c18.2,67,6.8,135.1,14.7,218.4c13.1-59.5,21.4-104.4,32.9-148.4c25-95.1,87.4-150,168.9-151.1
		C7308.2,668,7373.8,719,7404,810c40.7,122.6,34.9,249.8,19.8,373.8c-22.6,186.2-62,369.4-174.5,527.5
		c-145.8,204.8-376.5,192.5-538.1,57.9c-103.5-86.2-87.9-258.8,28.3-346.9c-114.4-106.6-117.3-249.7-127-390.6
		C6602.4,1002,6605.4,973.8,6622.2,947.1z"/>
	<path fill="#482D16" d="M1704,2400.1c41.4,64.7,46.3,137.6,43.1,210.8c-4.9,112.6-116,186.2-234.1,157.9
		c-46.2-11.1-87.4-34.9-131.7-56.4c0,38.2-2,71.8,0.4,105.1c5.3,74.2-17.2,134.1-84.4,171.4c-65.8,36.5-130.6,26.7-193-9.9
		c-82.1-48.1-134.1-125.5-184.5-201.7c-71.6-108.3-146.5-214.1-227.1-315.6c-91-114.7-94.2-281.6,0.3-397.3
		C763,1979,832.9,1894,925.5,1832.8c121.3-80.1,252.2-102.7,384.9-32.8c132.5,69.7,190.1,187.4,189.3,335.2
		c-0.1,16,2.6,32.5-0.3,47.9c-8.3,43.7,7.3,70,48.4,88.5c30.3,13.7,56.1,37.2,83.9,56.4C1675.6,2332.2,1699.6,2356.3,1704,2400.1z"
		/>
	<path fill="#482D16" d="M1704,2400.1c-19.3-28.8-43.3-52.9-72.2-72.1c9.4-23.5-9.3-36.9-19.7-52.8
		c-91.7-139.8-116.8-294.5-98.2-457.3c15.7-137.5,146.9-212.8,286.2-113.1c3.8-9.6,8.6-18.1,10.7-27.3
		c33-143.2,175.9-201.6,294.7-113.3c150.4,111.7,230,267.1,245.2,453.2c7.6,92,2.3,184.3-47.9,266.5
		c-120.9,197.8-372.6,254.3-566.3,127.5C1726.1,2404.5,1717,2397.8,1704,2400.1z"/>
	<path fill="#482D16" d="M4261.9,1172.7c-1.5-105.6-7.9-211.3,21.9-315c14-48.8,33.4-94.7,68.6-130.7
		c75.6-77.5,182.3-56.8,262.4,48.4c76.3-161.2,270.4-157.9,350.7,2.6c92.8,185.5,114.6,381.4,47.1,579.8
		c-49,144.1-202,230-380.2,225.1c-153.2-4.2-284-110.1-334.8-271.1c-5.4-17.1-10.1-34.3-15.1-51.5
		C4251.3,1236.8,4262.7,1203.3,4261.9,1172.7z"/>
	<path fill="#482D16" d="M9983.5,2469.7c-124.3,45.3-242.5-46.3-232.9-189.9c6.5-97.1,30.4-182.5,75.4-265.4
		c53.2-98,93.7-202.8,154.4-296.8c61.3-94.9,135.5-128.8,224.3-110c51.2,10.8,87.6,41.2,110.2,84.5c12.4,23.7,22,34.8,49.9,39.9
		c301.4,54.4,328.6,295.2,235.5,503.6c-62.7,140.4-166.6,253-292.7,342.2c-62.9,44.5-131.3,77-212.3,49.9
		c-46.2-15.5-81-41.8-88.7-93.8C9990.1,2515.7,10021.6,2480.2,9983.5,2469.7z"/>
	<path fill="#482D16" d="M2788.7,2048c-26.3,76.4-77.5,127.8-159.1,133c-73.2,4.7-130.1-34.3-168-96.1
		c-87.4-142.7-152.2-296.6-216.1-450.6c-25.8-62.1-20-129.9-12.3-194.8c12.8-107.1,98.2-166.4,203.6-144.6
		c26.4,5.5,38.8-5.8,55.8-21.6c111.3-103.1,255.4-126.4,361.2-60.9c38.2,23.7,68.4,55.4,90,94.1
		c111.6,200.7,145.6,416.3,104.9,640.1C3022.4,2092.6,2909.3,2131.6,2788.7,2048z"/>
	<path fill="#482E16" d="M6601.4,1032.7c-18,120.4-43.4,238.9-100.4,347.9c-25.3,48.3-58,92.2-108.3,116.7
		c-78.7,38.2-140.7,14.1-207.3-77.9c-38.2,41.8-86.9,65.8-142.2,63.3c-75.7-3.4-125.1-49.1-149.2-118.7
		c-12.9-37.3-22.9-77.5-23.8-116.7c-3.8-159.5-7.1-319.1-3.6-478.6c2.8-130.8,57.5-201.6,157.2-223.8c41.3-9.2,81.6-3,113.3,22.3
		c28.9,23.1,52.2,21.3,85.5,11.5c154.9-45.3,288.2,0.8,347.5,117.6c30.5,60,34.1,126.4,39.2,191.9c1.6,19.8,1.8,39.8,2.7,59.6
		C6613,976.8,6615.4,1005.8,6601.4,1032.7z"/>
	<path fill="#482D16" d="M5442.4,1430.3c-49.5,58.4-107.3,93.3-187.8,70.9c-79.9-22.2-115.4-82.6-129.9-155.9
		c-35.6-180.3-56-362.8-58.1-546.4c-1.5-133.6,55.7-205.2,159.8-226.1c31.6-6.4,62.8-3.3,86.2,11.8c35.8,23.1,63.3,18.8,101.5,4.6
		c187.9-69.7,368.2,0.1,396.9,230.8c23.4,187.7,3.8,369.9-61.5,547.4c-12,32.6-31.4,60.3-52.9,86.3
		C5622.1,1543.3,5517.7,1533.4,5442.4,1430.3z"/>
	<path fill="#482D16" d="M4270.3,1260.4c4.8,307.4-221,521.9-531.6,507.2c-62-2.9-99.6-34.1-124.6-86.6
		c-67.3-141-106.7-291.3-144.8-441.8c-28.3-111.6-66.7-221.9-60.5-340c2-38.4,2.8-79.2,31.8-106.1
		c133.6-124.1,284.2-214.1,474.6-204.8C4093,597,4187.9,700,4188,876.7c0,12,2.4,24.6-0.4,35.9c-25.2,102.3-7.5,194.4,62.7,274.8
		C4266.7,1209.1,4268.9,1234.6,4270.3,1260.4z"/>
	<path fill="#482E16" d="M11196.4,2084.4c9.3,80.8-14.4,154.8-53.4,223c-90.5,158.4-189.4,310.7-349.1,410.2
		c-21.2,13.2-22.2,28.3-21.5,49.7c3.4,109.1-81.4,177.1-188.1,152.2c-146-34-211-135.5-178.3-280.1c11.7-51.6,46.9-81.6,96.4-95.8
		c17.5-5.1,32.6-7.8,34.5-32.7c8.6-116.3,56.6-219.1,117-316.1c65.2-104.6,122.3-216.4,229.1-288.1c83.6-56.2,182.2-55.1,255.6,4.4
		C11194.1,1956,11203.5,2017.8,11196.4,2084.4z"/>
	<path fill="#482E17" d="M7788.8,1441c16.9,122-52.1,203.8-145.8,270.1c-43.1,30.5-93.7,33.7-141.1,7.4
		c-43.3-24.1-56.6-64.3-49.9-112.4c2.2-15.9,2-32.2-9.2-45.6c-46.9-56.4-35.8-124.3-30-187.5c8-86.8,81.7-144.9,168.9-145.2
		c101.6-0.3,196.4,70.4,206.8,155.5C7790.7,1400.8,7788.8,1418.9,7788.8,1441z"/>
	<path fill="#BDAFA4" d="M6601.4,1032.7c-2.6-29-4.8-58,10.6-84.8c3.4-0.7,6.8-1,10.2-0.9c3.6,29,1.5,57.3-9.7,84.7
		C6608.8,1031.9,6605.1,1032.2,6601.4,1032.7z"/>
	<path fill="#E6E1DC" d="M4270.3,1260.4c-14.6-22.1-13.8-48.5-20-72.9c3.9-4.9,7.7-9.9,11.6-14.8c15.7,27.1,13.4,58.5,20.6,87.6
		C4278.4,1260.3,4274.4,1260.3,4270.3,1260.4z"/>
	<path fill="#806856" d="M9983.5,2469.7c11.9-10.3,21.2-8.5,22.6,7.7c1.6,18.7,0.4,37.7,0.5,56.6
		C9984,2517.9,10008.2,2485,9983.5,2469.7z"/>
	<path fill="#E7C6A7" d="M8729.1,889.3c66.3,3,160.3,6.4,248.2,44.5c103.4,44.8,170.6,119.7,173.8,236.2
		c3.3,120.7-52.7,210.3-160.2,266.5c-14.1,7.4-28.8,16-44.1,18.3c-51.5,7.7-48.9,36.4-38.5,77.2c19.8,78,26.2,157.6,6.9,237.2
		c-12.5,51.5-34.6,98.7-94.6,99.9c-57.7,1.2-87.6-38.5-103-91.7c-20.7-71.9-15.1-146.7-26.9-219.5c-3-18.5,8-50.2-29.4-45.4
		c-30,3.9-68.7-19.2-84.8,31.3c-14.4,45.5-35.1,89.6-65.1,127.3c-29.8,37.5-60.3,78.2-118.9,57.5c-56-19.8-62.2-67-63.3-116.7
		c-1.4-67.1,19-130.5,39.7-192.6c39.8-119.2,74.7-239.6,107.9-360.8C8520.3,900.4,8537.4,889.3,8729.1,889.3z"/>
	<path fill="#E7C6A7" d="M9462.7,2076.2c-160.9-8.8-361.5-125.5-308-368.7c29.5-133.8,91.4-246.3,202.2-328.7
		c37.5-27.9,80-52.2,125.4-15.8c44.3,35.4,31.7,82.2,17.5,126.9c-11,34.6-32.5,63.7-53,93.4c-37.5,54.3-74.1,109.6-93.4,173.3
		c-12.6,41.6-16.7,84.3,31.4,109.6c47.3,24.9,88.3,15.6,122.8-24.8c34.4-40.3,54-88.2,70.1-137.7c11.7-36,21.7-72.6,32.8-108.8
		c21.1-68.7,63.4-102.2,118.6-94.2c52,7.5,87.9,52.3,84.7,120.1c-7.4,155.9-62.8,291.6-183.8,395.1
		C9581.2,2057.6,9522.7,2075.7,9462.7,2076.2z"/>
	<path fill="#E7C6A7" d="M7105.9,1246.8c-53.2,36.9-94.4,80.1-155.9,85.1c-123.8,10-214.1-66.4-238.7-209.6
		c-19.3-111.9-10.2-222.7,33-328.9c9.6-23.7,22.5-47.4,39.1-66.6c48.5-56.2,116.7-42.6,139.7,27.6c21.7,66.2,14.2,134.3,6.9,202
		c-2.8,25.8-5,51.6-7.1,77.4c-3.2,40.5,10.8,71.7,52.6,81.8c41.6,10,79.5,4,104.8-36.4c26.5-42.2,29.2-90.5,35.9-137.7
		c6.5-45.4,10.7-91.6,32.3-133c38-73.1,117.8-75.5,161.3-5.3c20.4,32.9,30.5,69.9,33,107.8c14.4,217.6-23.6,425.9-123.8,620
		c-96.2,186.4-267.7,233.8-427.7,122.8c-17.7-12.3-33.4-28.5-46.7-45.6c-17.1-21.9-20.6-48.5-6.6-73.1c15.1-26.5,40-39,70.7-34.8
		c15.5,2.1,31.3,6.2,45.7,12.2c105,44,144.2,30,194.4-72.4C7077.7,1381.4,7097.4,1319.6,7105.9,1246.8z"/>
	<path fill="#907B6A" d="M7015.9,1026.4c-11.5-19-0.8-26.7,3.7-39.1C7036.7,1005.8,7017.3,1011.1,7015.9,1026.4z"/>
	<path fill="#E7C6A7" d="M1149.2,1845.5c179.2,0.8,297.5,161.5,257.3,341.7c-20,89.9-20,89.9,61.8,134.5
		c61.8,33.7,118.7,73.8,162.3,129.9c29.8,38.3,47.8,81.2,17,126.2c-31.8,46.5-80.5,49.6-128.9,33.7
		c-68.9-22.7-126.1-67.3-186.9-105.4c-19.3-12.1-40.1-48.8-69.1-15.9c-26.4,30-58.8,58.1-23,107c34.1,46.6,56,101.3,58.3,160.9
		c3.1,77.1-55.1,117.2-127.2,88.6c-50.3-20-86.1-58.1-116.8-99.9c-102.5-140-204.2-280.6-303.9-422.6c-59-84.1-57.4-116,3.5-199.1
		c65.2-88.9,138-171.1,231.5-231.6C1036.5,1860.3,1093,1841.9,1149.2,1845.5z"/>
	<path fill="#E7C6A7" d="M2268.4,2004.8c-1.7,151.5-71.3,235.5-185.2,289.8c-112.1,53.4-218.7,46.9-312.2-36.5
		c-123-109.8-182.7-249.1-175.4-415.2c1.9-44.7,15-85.2,62.9-98.3c51.1-14,82.6,19.2,108.3,57c35.5,52.1,44.8,114.8,67.5,172.1
		c17,42.9,34.4,85.3,62.4,122.1c24.7,32.3,55.6,55,97.8,35.9c41.3-18.7,65.8-50.3,61.2-99.5c-4.2-45.3-24-84.6-47.3-121.7
		c-28.6-45.6-61.6-88.4-92-133c-36.7-53.9-35.2-103,3.2-141.2c37.6-37.2,91-41.6,141.6-1.6C2186.8,1733.9,2251.8,1867,2268.4,2004.8
		z"/>
	<path fill="#E7C6A7" d="M4557.1,995.9c1.9,51.9,2.9,103.7,14.5,154.8c14.7,64.8,44.7,94.9,91.5,89.6c56.5-6.4,87.3-42.9,88.7-108.4
		c1.5-68.9-19.3-133.8-38.3-198.9c-8.9-30.5-20.6-60.1-21.7-92.7c-1.5-43.8,21-74.1,56.8-90.9c36.6-17.1,73.4-10,105.2,18.8
		c93.8,85,172.4,417.6,31.7,567.4c-127.3,135.6-373.8,119.6-467.7-38c-81.7-137.1-94.9-286.5-46.4-438.7
		c15.1-47.2,36.2-98.9,101.1-91.9c63.1,6.7,75.4,60.5,83.4,109.5C4562.2,915.2,4557.1,955.9,4557.1,995.9z"/>
	<path fill="#E7C6A7" d="M10559.2,2006c-0.9,44.4-15.1,85.5-35.3,124.8c-62.1,121.2-150.7,220-258.3,302.2
		c-20.3,15.5-44,27.4-67.5,37.9c-34.4,15.4-70.7,20.6-100.8-8.2c-27.8-26.6-15.5-58.7-6.1-89.6c19-62.6,58.8-112.4,98.9-162.1
		c40-49.6,84-96.3,108.9-156.6c9.7-23.5,16.2-46.5-4.5-66.4c-21.1-20.2-41.8-3.4-60.3,5.8c-41.7,20.8-75.2,49.1-97,93.2
		c-27.3,55.2-54.9,110.8-94.1,159.2c-21.4,26.4-43.4,52.1-74.7,67.8c-35.2,17.7-69.2,16.6-101.7-5.9c-30.2-20.9-33.1-51.9-30.5-85
		c3.2-40.5,17.1-78,34.9-113.6c53.3-106.9,107.9-213.1,162.7-319.2c16.5-32.1,36.8-62,66.5-83.6c31.1-22.6,65.6-31.1,101.2-12.9
		c32.5,16.7,52.2,44.6,48.4,82.5c-3.8,37.8,6.8,44.7,45.4,38.8c76.8-11.9,145.1,16.2,204.8,64.5
		C10540,1912,10557.5,1955.1,10559.2,2006z"/>
	<path fill="#E7C6A7" d="M2494.4,1418.8c31.6-68.4,80.1-116.1,147.7-143.4c91-36.8,173.6-16.3,224.8,66.8
		c95.3,154.9,123.7,326.3,106.1,505.4c-3.9,40-22.4,81-68.2,88.9c-45.6,7.8-65.4-31.9-85-63.4c-42-67.2-53.2-145.1-70.9-220.5
		c-11-46.7-23-92.9-48.8-133.9c-10.7-17.1-24.7-32.2-48-30.1c-26.9,2.4-29.2,26.7-32.6,44.3c-8.7,45.1-10.8,90.2,9.8,134.5
		c30.2,64.9,63,129.1,75.1,200.8c3.6,21.5,7.2,43.6,5.7,65.1c-2.9,40.9-24.4,70.7-62.9,87.2c-40.3,17.2-71.5-2.7-95.5-29.9
		c-24.8-28-46.7-60.2-63-93.9c-52-107.5-100.7-216.5-150.9-324.9c-14.4-31.1-23.4-63.3-24.1-97.8c-0.7-38.4,9.8-70.1,45.1-91.3
		c36.6-21.9,68.6-10.1,100,10.2C2470,1400.1,2480.5,1408.6,2494.4,1418.8z"/>
	<path fill="#E7C6A7" d="M6150.1,716.8c57.9-54.9,125.5-76.7,203.7-69.6c88.7,8,150.2,60.2,161.3,148.1
		c21.8,173.8-18,336.6-98,490.4c-9.9,19-25.8,36-42.2,50.1c-46.7,40.1-93,26.1-109.2-32.6c-18.7-67.4-8-134.7,4.4-201.7
		c11.9-64.6,30.7-128.4,26.7-195c-1.6-25.9-5.3-56.3-35.9-62.7c-27.6-5.8-39.8,21.2-54.1,39.9c-52.5,68.4-33.4,149.4-37.8,225.7
		c-2.7,46.2-5.8,91.5-21.2,135.3c-17.4,49.5-49.8,85.5-104.8,81.3c-52-4-70.2-47.2-79.3-92.4c-24-118.7-5.4-239.2-13.6-358.6
		c-2.6-37.7-1.3-76,1.1-113.8c3.6-58,15.5-115.2,81.1-132.3C6101.9,610.5,6124.4,666.9,6150.1,716.8z"/>
	<path fill="#E7C6A7" d="M5347.8,735.5c51.6-55.2,111.5-86.5,185.8-87.6c101.8-1.5,169.2,47,188.3,146
		c31.9,165.3,7.2,325.4-55.4,480.3c-7.3,18.2-18.9,35.4-31.7,50.4c-45.5,53.6-99.9,44.1-121.9-22c-21.3-63.8-19.5-129.7-11-195.6
		c8.5-65.5,13.6-131,7.2-197c-2.4-24.9-8.7-50.4-35.7-56.3c-29.2-6.4-41.2,19.2-52.2,40.4c-20.3,39.2-33.5,78.3-27.1,125.5
		c9.2,67,11.7,135.2,5.5,203.1c-3.1,34.3-10.3,67-33.5,94c-46.1,53.9-107.2,49.4-142.2-12c-26.2-46-32.8-98-38.5-149.5
		c-11.3-103-20.9-206.2-32.2-309.2c-4.2-38.1-3.9-75.5,6.2-112.7c10.6-39.3,30.4-67.7,73.6-77c42.8-9.2,67.8,14,90.8,43.2
		C5332.1,709.8,5338.7,721.6,5347.8,735.5z"/>
	<path fill="#E7C6A7" d="M3989.4,1100c170.3-3.6,246.2,186.3,162.2,308.7c-98.7,143.8-244.4,196.9-412.5,201.7
		c-37,1.1-45-28.9-56.2-53.2c-64.7-139.9-101.8-288.9-141.1-437c-17.4-65.4-30-132-45.4-197.9c-10.2-43.6,1.5-76.8,38.4-104.3
		c110.4-82.1,224.9-152.7,369.7-147.3c160.5,6,240.8,125.6,186.4,277.2C4071.2,1002.8,4036.4,1048.7,3989.4,1100z"/>
	<path fill="#E7C6A7" d="M11114,2065.3c0.6,21.8-6.7,49.3-18.6,74.4c-74.3,156.8-168.6,299.2-306.5,408.1
		c-40.5,32-88,70.8-140.1,34.4c-49.2-34.4-31.3-91-16.3-138.4c52.1-164.4,143.3-306.6,256.6-435c25.2-28.6,58-48.8,96.5-57.1
		C11059.9,1935.5,11117.2,1983.1,11114,2065.3z"/>
	<path fill="#E4C4A5" d="M10557.5,2617.1c39.7,5.2,81.1,17.5,111.5,53.2c15.8,18.6,31.1,39.7,16.2,64.5
		c-13.8,23-35.4,38.6-64.4,35.7c-45.1-4.5-84.2-22.7-114.7-56.9c-16.8-18.8-28.3-41.1-14.4-65.1
		C10504.6,2626.6,10527,2617.1,10557.5,2617.1z"/>
	<path fill="#E6C5A6" d="M7589.1,1468.9c-74.7-12.5-104.4-43.9-94.5-91.5c10.2-49,59.3-73.8,118.3-59.9
		c94.8,22.4,120.9,88.8,66.3,169.2c-22.6,33.3-48.2,64-84,83.8c-18,9.9-39.3,17-55-1.4c-14.2-16.6-2.2-34.4,8.1-49.1
		C7559.4,1504,7572.6,1489.4,7589.1,1468.9z"/>
	<path fill="#492F18" d="M8769.6,1115.8c43.4,6.1,102.9-0.5,111.4,61.6c8.3,61.1-42.3,85.8-91.7,101c-37.8,11.6-87,32.4-114.6,8.4
		c-22.9-19.9,10.1-64.5,20.1-97.2C8705.8,1154.1,8697,1094.8,8769.6,1115.8z"/>
	<path fill="#492E17" d="M1085,2355.8c-25.3-35.4-50.2-66.6-70.8-100.3c-12.8-21-50.1-38.1-22.2-70.4
		c33.4-38.8,65.7-86.8,123.8-82.4c38.6,2.9,51.8,39.3,52,76.2C1168.1,2249.4,1130.5,2301.9,1085,2355.8z"/>
	<path fill="#492F18" d="M3765.4,987.2c-7.1-61.8,30.2-79,73.8-87.5c32-6.3,50.2,10.4,48.1,43.1c-1.1,17.5-5.5,35.6-12.6,51.6
		c-16.9,38.2-37.3,92.2-78.5,86.4C3762.7,1076.3,3772.1,1016.9,3765.4,987.2z"/>
	<path fill="#4B311A" d="M3949.9,1277.4c-3.3,38.1-54.5,105.9-76.5,96c-34.6-15.7-32.3-56.7-31.5-87c1.1-40,36.8-53.4,71.5-55.8
		C3943.7,1228.6,3954.9,1248.3,3949.9,1277.4z"/>
</g>
</svg>
